<?xml version="1.0" encoding="utf-8"?>
<!-- Generator: Adobe Illustrator 27.5.0, SVG Export Plug-In . SVG Version: 6.00 Build 0)  -->
<svg version="1.1" xmlns="http://www.w3.org/2000/svg" xmlns:xlink="http://www.w3.org/1999/xlink" x="0px" y="0px"
	 viewBox="0 0 500 500" style="enable-background:new 0 0 500 500;" xml:space="preserve">
<g id="Background_Complete">
	<g>
		<rect x="416.779" y="398.494" style="fill:#EBEBEB;" width="33.122" height="0.25"/>
		<rect x="322.527" y="401.208" style="fill:#EBEBEB;" width="8.693" height="0.25"/>
		<rect x="396.586" y="389.208" style="fill:#EBEBEB;" width="19.192" height="0.25"/>
		<rect x="52.459" y="390.888" style="fill:#EBEBEB;" width="43.193" height="0.25"/>
		<rect x="104.556" y="390.888" style="fill:#EBEBEB;" width="6.333" height="0.25"/>
		<rect x="131.471" y="395.111" style="fill:#EBEBEB;" width="93.676" height="0.25"/>
		<path style="fill:#EBEBEB;" d="M237.014,337.8H43.915c-3.147,0-5.708-2.561-5.708-5.708V60.66c0-3.147,2.561-5.708,5.708-5.708
			h193.099c3.146,0,5.707,2.561,5.707,5.708v271.432C242.721,335.239,240.16,337.8,237.014,337.8z M43.915,55.203
			c-3.01,0-5.458,2.448-5.458,5.458v271.432c0,3.01,2.448,5.458,5.458,5.458h193.099c3.009,0,5.457-2.448,5.457-5.458V60.66
			c0-3.009-2.448-5.458-5.457-5.458H43.915z"/>
		<path style="fill:#EBEBEB;" d="M453.31,337.8H260.212c-3.147,0-5.707-2.561-5.707-5.708V60.66c0-3.147,2.561-5.708,5.707-5.708
			H453.31c3.148,0,5.708,2.561,5.708,5.708v271.432C459.019,335.239,456.458,337.8,453.31,337.8z M260.212,55.203
			c-3.009,0-5.457,2.448-5.457,5.458v271.432c0,3.01,2.448,5.458,5.457,5.458H453.31c3.01,0,5.458-2.448,5.458-5.458V60.66
			c0-3.009-2.448-5.458-5.458-5.458H260.212z"/>
		<rect y="382.398" style="fill:#EBEBEB;" width="500" height="0.25"/>
	</g>
	<g>
		<g>
			
				<ellipse transform="matrix(0.7071 -0.7071 0.7071 0.7071 -44.581 186.4046)" style="fill:#F5F5F5;" cx="202.72" cy="147.016" rx="62.79" ry="62.79"/>
			<circle style="fill:#EBEBEB;" cx="202.72" cy="147.016" r="53.249"/>
			<path style="fill:#E6E6E6;" d="M202.72,93.767c0.838,0,1.671,0.025,2.5,0.063c-28.247,1.306-50.749,24.616-50.749,53.186
				s22.502,51.88,50.749,53.186c-0.829,0.038-1.662,0.063-2.5,0.063c-29.409,0-53.249-23.841-53.249-53.249
				S173.311,93.767,202.72,93.767z"/>
			<path style="fill:#FAFAFA;" d="M202.701,200.203c0.006,0,0.013,0,0.019-0.001c-1.349-0.062-2.679-0.19-4-0.351v-48.835h-46.585
				c-0.098-1.322-0.164-2.653-0.164-4c0-1.347,0.066-2.678,0.164-4h46.585V94.181c1.321-0.161,2.651-0.289,4-0.351
				c-0.002,0-0.003,0-0.005,0h4.005v49.186h49.186v8H206.72v49.187H202.701z"/>
			<g>
				<rect x="206.72" y="93.83" style="fill:#E6E6E6;" width="4" height="49.187"/>
				<rect x="206.72" y="151.016" style="fill:#E6E6E6;" width="4" height="49.187"/>
			</g>
		</g>
		<g>
			<path style="fill:#EBEBEB;" d="M138.461,230.592h-19.549c-3.546,0-6.421-2.875-6.421-6.421v-5.628
				c0-3.546,2.875-6.421,6.421-6.421h19.549c3.546,0,6.421,2.875,6.421,6.421v5.628
				C144.881,227.717,142.007,230.592,138.461,230.592z"/>
			<path style="fill:#F5F5F5;" d="M145.533,208.06h-19.549c-3.546,0-6.421-2.875-6.421-6.421v-5.628
				c0-3.546,2.875-6.421,6.421-6.421h19.549c3.546,0,6.421,2.875,6.421,6.421v5.628C151.954,205.185,149.08,208.06,145.533,208.06z"
				/>
			<path style="fill:#F5F5F5;" d="M169.227,230.592h-13.909c-3.546,0-6.421-2.875-6.421-6.421v-5.628
				c0-3.546,2.875-6.421,6.421-6.421h13.909c3.546,0,6.421,2.875,6.421,6.421v5.628
				C175.648,227.717,172.773,230.592,169.227,230.592z"/>
			<path style="fill:#F0F0F0;" d="M153.755,252.031h-13.909c-3.546,0-6.421-2.875-6.421-6.421v-5.628
				c0-3.546,2.875-6.421,6.421-6.421h13.909c3.546,0,6.421,2.875,6.421,6.421v5.628
				C160.176,249.156,157.302,252.031,153.755,252.031z"/>
		</g>
		<g>
			<path style="fill:#EBEBEB;" d="M95.169,119.703H79.745c-3.546,0-6.421-2.875-6.421-6.421v-10.688
				c0-3.546,2.875-6.421,6.421-6.421h15.424c3.546,0,6.421,2.875,6.421,6.421v10.688C101.59,116.828,98.715,119.703,95.169,119.703z
				"/>
			<path style="fill:#F5F5F5;" d="M134.366,119.703h-21.239c-3.546,0-6.421-2.875-6.421-6.421v-10.688
				c0-3.546,2.875-6.421,6.421-6.421h21.239c3.546,0,6.421,2.875,6.421,6.421v10.688
				C140.787,116.828,137.912,119.703,134.366,119.703z"/>
			<path style="fill:#F0F0F0;" d="M123.655,147.016h-21.239c-3.546,0-6.421-2.875-6.421-6.421v-10.688
				c0-3.546,2.875-6.421,6.421-6.421h21.239c3.546,0,6.421,2.875,6.421,6.421v10.688
				C130.076,144.142,127.201,147.016,123.655,147.016z"/>
		</g>
		<g>
			<path style="fill:#EBEBEB;" d="M384.053,172.787H355.63c-3.546,0-6.421-2.875-6.421-6.421v-10.688
				c0-3.546,2.875-6.421,6.421-6.421h28.424c3.546,0,6.421,2.875,6.421,6.421v10.688C390.474,169.912,387.6,172.787,384.053,172.787
				z"/>
			<path style="fill:#F5F5F5;" d="M423.25,172.787h-21.239c-3.546,0-6.421-2.875-6.421-6.421v-10.688
				c0-3.546,2.875-6.421,6.421-6.421h21.239c3.546,0,6.421,2.875,6.421,6.421v10.688
				C429.671,169.912,426.796,172.787,423.25,172.787z"/>
			<path style="fill:#F0F0F0;" d="M403.539,200.1H382.3c-3.546,0-6.421-2.875-6.421-6.421v-10.688c0-3.546,2.875-6.421,6.421-6.421
				h21.239c3.546,0,6.421,2.875,6.421,6.421v10.688C409.96,197.226,407.085,200.1,403.539,200.1z"/>
			<path style="fill:#F0F0F0;" d="M418.761,142.793h-21.239c-3.546,0-6.421-2.875-6.421-6.421v-10.688
				c0-3.546,2.875-6.421,6.421-6.421h21.239c3.546,0,6.421,2.875,6.421,6.421v10.688
				C425.181,139.918,422.307,142.793,418.761,142.793z"/>
		</g>
	</g>
</g>
<g id="Background_Simple" style="display:none;">
	<g style="display:inline;">
		<g>
			<path style="fill:#407BFF;" d="M414.746,273.681c-0.012,24.775-2.397,49.583-14.026,71.972
				c-21.087,40.6-64.483,59.545-107.078,63.283c-40.412,3.547-92.406,0.157-122.747-32.712
				c-21.122-22.881-22.978-54.769-18.826-84.104c4.125-29.144-20.525-46.343-38.955-64.139
				c-23.545-22.736-34.539-49.147-23.622-81.442c11.895-35.187,52.261-52.398,86.797-56.452
				c49.582-5.82,96.501,14.231,138.126,38.575C362.919,157.028,414.775,213.335,414.746,273.681z"/>
			<path style="opacity:0.9;fill:#FFFFFF;" d="M414.746,273.681c-0.012,24.775-2.397,49.583-14.026,71.972
				c-21.087,40.6-64.483,59.545-107.078,63.283c-40.412,3.547-92.406,0.157-122.747-32.712
				c-21.122-22.881-22.978-54.769-18.826-84.104c4.125-29.144-20.525-46.343-38.955-64.139
				c-23.545-22.736-34.539-49.147-23.622-81.442c11.895-35.187,52.261-52.398,86.797-56.452
				c49.582-5.82,96.501,14.231,138.126,38.575C362.919,157.028,414.775,213.335,414.746,273.681z"/>
		</g>
	</g>
</g>
<g id="Shadow">
	<ellipse id="_x3C_Path_x3E__1_" style="fill:#F5F5F5;" cx="245.178" cy="412.391" rx="193.889" ry="11.323"/>
</g>
<g id="Wall_Shelves">
	<g>
		<g>
			<path style="fill:#263238;" d="M104.966,371.069H69.904v7.77h6.431c3.042,14.318,14.313,25.59,28.632,28.632v6.431h13.678
				v-35.062v-7.77H104.966z"/>
			<path style="opacity:0.7;fill:#FFFFFF;" d="M104.966,371.069H69.904v7.77h6.431c3.042,14.318,14.313,25.59,28.632,28.632v6.431
				h13.678v-35.062v-7.77H104.966z"/>
			<path style="fill:#263238;" d="M113.631,371.069H78.569v7.77h6.431c3.042,14.318,14.313,25.59,28.632,28.632v6.431h7.77v-35.062
				v-7.77H113.631z"/>
			<path style="opacity:0.6;fill:#FFFFFF;" d="M113.631,371.069H78.569v7.77h6.431c3.042,14.318,14.313,25.59,28.632,28.632v6.431
				h7.77v-35.062v-7.77H113.631z"/>
		</g>
		<g>
			<path style="fill:#263238;" d="M418.833,371.069h-35.062v7.77h6.431c3.042,14.318,14.313,25.59,28.632,28.632v6.431h13.678
				v-35.062v-7.77H418.833z"/>
			<path style="opacity:0.7;fill:#FFFFFF;" d="M418.833,371.069h-35.062v7.77h6.431c3.042,14.318,14.313,25.59,28.632,28.632v6.431
				h13.678v-35.062v-7.77H418.833z"/>
			<path style="fill:#263238;" d="M427.498,371.069h-35.062v7.77h6.431c3.042,14.318,14.313,25.59,28.632,28.632v6.431h7.77v-35.062
				v-7.77H427.498z"/>
			<path style="opacity:0.6;fill:#FFFFFF;" d="M427.498,371.069h-35.062v7.77h6.431c3.042,14.318,14.313,25.59,28.632,28.632v6.431
				h7.77v-35.062v-7.77H427.498z"/>
		</g>
		<g>
			<rect x="54.387" y="359.513" style="fill:#263238;" width="380.881" height="12.667"/>
			<rect x="54.387" y="359.513" style="opacity:0.8;fill:#FFFFFF;" width="380.881" height="12.667"/>
			<rect x="364.736" y="359.513" style="opacity:0.1;" width="70.532" height="12.667"/>
		</g>
	</g>
</g>
<g id="Box_Drawer">
	<g>
		<g>
			<rect x="287.884" y="232.98" style="fill:#263238;" width="135.941" height="126.61"/>
			<rect x="287.884" y="232.98" style="opacity:0.2;fill:#FFFFFF;" width="89.977" height="126.61"/>
			<rect x="287.884" y="232.98" style="opacity:0.6;fill:#FFFFFF;" width="135.941" height="126.61"/>
		</g>
		<g>
			<rect x="297.657" y="242.753" style="fill:#263238;" width="70.431" height="31.533"/>
			<rect x="297.657" y="242.753" style="opacity:0.5;fill:#FFFFFF;" width="70.431" height="31.533"/>
			<g style="opacity:0.4;">
				<path style="fill:#FFFFFF;" d="M360.98,271.035h-56.217v-0.75c0-1.714-1.394-3.107-3.107-3.107h-0.75V249.86h0.75
					c1.713,0,3.107-1.393,3.107-3.107v-0.75h56.217v0.75c0,1.714,1.394,3.107,3.107,3.107h0.75v17.318h-0.75
					c-1.713,0-3.107,1.393-3.107,3.107V271.035z M306.203,269.535h53.339c0.319-1.94,1.855-3.477,3.796-3.797v-14.439
					c-1.94-0.319-3.477-1.856-3.796-3.797h-53.339c-0.319,1.94-1.855,3.478-3.796,3.797v14.439
					C304.347,266.058,305.884,267.595,306.203,269.535z"/>
			</g>
			<g>
				<path style="fill:#263238;" d="M335.689,259.508h-5.635c-2.558,0-4.632-2.074-4.632-4.632v-1.267h-0.602
					c-0.828,0-1.5-0.672-1.5-1.5l0,0c0-0.828,0.672-1.5,1.5-1.5h1.404c1.214,0,2.197,0.984,2.197,2.197v2.069
					c0,0.901,0.731,1.632,1.632,1.632h5.635c0.901,0,1.632-0.731,1.632-1.632v-2.069c0-1.214,0.984-2.197,2.197-2.197h1.404
					c0.828,0,1.5,0.672,1.5,1.5l0,0c0,0.828-0.672,1.5-1.5,1.5h-0.602v1.267C340.321,257.434,338.247,259.508,335.689,259.508z"/>
			</g>
		</g>
		<g>
			<rect x="297.657" y="279.906" style="fill:#263238;" width="70.431" height="31.533"/>
			<rect x="297.657" y="279.906" style="opacity:0.5;fill:#FFFFFF;" width="70.431" height="31.533"/>
			<g style="opacity:0.4;">
				<path style="fill:#FFFFFF;" d="M360.98,308.19h-56.217v-0.75c0-1.714-1.394-3.107-3.107-3.107h-0.75v-17.318h0.75
					c1.713,0,3.107-1.394,3.107-3.107v-0.75h56.217v0.75c0,1.714,1.394,3.107,3.107,3.107h0.75v17.318h-0.75
					c-1.713,0-3.107,1.393-3.107,3.107V308.19z M306.203,306.69h53.339c0.319-1.94,1.855-3.478,3.796-3.797v-14.439
					c-1.94-0.319-3.477-1.856-3.796-3.797h-53.339c-0.319,1.94-1.855,3.477-3.796,3.797v14.439
					C304.347,303.212,305.884,304.749,306.203,306.69z"/>
			</g>
			<g>
				<path style="fill:#263238;" d="M335.689,296.662h-5.635c-2.558,0-4.632-2.074-4.632-4.632v-1.267h-0.602
					c-0.828,0-1.5-0.672-1.5-1.5l0,0c0-0.828,0.672-1.5,1.5-1.5h1.404c1.214,0,2.197,0.984,2.197,2.197v2.069
					c0,0.901,0.731,1.632,1.632,1.632h5.635c0.901,0,1.632-0.731,1.632-1.632v-2.069c0-1.214,0.984-2.197,2.197-2.197h1.404
					c0.828,0,1.5,0.672,1.5,1.5l0,0c0,0.828-0.672,1.5-1.5,1.5h-0.602v1.267C340.321,294.588,338.247,296.662,335.689,296.662z"/>
			</g>
		</g>
		<g>
			<rect x="297.657" y="317.06" style="fill:#263238;" width="70.431" height="31.533"/>
			<rect x="297.657" y="317.06" style="opacity:0.5;fill:#FFFFFF;" width="70.431" height="31.533"/>
			<g style="opacity:0.4;">
				<path style="fill:#FFFFFF;" d="M360.98,345.343h-56.217v-0.75c0-1.714-1.394-3.107-3.107-3.107h-0.75v-17.318h0.75
					c1.713,0,3.107-1.394,3.107-3.107v-0.75h56.217v0.75c0,1.714,1.394,3.107,3.107,3.107h0.75v17.318h-0.75
					c-1.713,0-3.107,1.394-3.107,3.107V345.343z M306.203,343.843h53.339c0.319-1.94,1.855-3.478,3.796-3.797v-14.44
					c-1.94-0.319-3.477-1.856-3.796-3.797h-53.339c-0.319,1.94-1.855,3.478-3.796,3.797v14.44
					C304.347,340.366,305.884,341.903,306.203,343.843z"/>
			</g>
			<g>
				<path style="fill:#263238;" d="M335.689,333.816h-5.635c-2.558,0-4.632-2.074-4.632-4.632v-1.267h-0.602
					c-0.828,0-1.5-0.672-1.5-1.5l0,0c0-0.828,0.672-1.5,1.5-1.5h1.404c1.214,0,2.197,0.984,2.197,2.197v2.069
					c0,0.901,0.731,1.632,1.632,1.632h5.635c0.901,0,1.632-0.731,1.632-1.632v-2.069c0-1.214,0.984-2.197,2.197-2.197h1.404
					c0.828,0,1.5,0.672,1.5,1.5l0,0c0,0.828-0.672,1.5-1.5,1.5h-0.602v1.267C340.321,331.742,338.247,333.816,335.689,333.816z"/>
			</g>
		</g>
	</g>
</g>
<g id="Clock">
	<g>
		<path style="fill:#407BFF;" d="M381.444,195.584c10.128,0,19.786,8.21,21.572,18.339l3.346,18.977h-36.677l-3.346-18.977
			L381.444,195.584z"/>
		<path style="fill:#407BFF;" d="M363.751,213.923c0-10.128,8.211-18.339,18.339-18.339c10.128,0,18.339,8.21,18.339,18.339V232.9
			h-36.677V213.923z"/>
		<path style="opacity:0.4;fill:#FFFFFF;" d="M363.751,213.923c0-10.128,8.211-18.339,18.339-18.339
			c10.128,0,18.339,8.21,18.339,18.339V232.9h-36.677V213.923z"/>
		
			<ellipse transform="matrix(0.2298 -0.9732 0.9732 0.2298 86.1033 536.6415)" style="fill:#263238;" cx="382.089" cy="213.923" rx="14.327" ry="14.327"/>
		
			<ellipse transform="matrix(0.2298 -0.9732 0.9732 0.2298 86.1033 536.6415)" style="fill:#407BFF;" cx="382.089" cy="213.923" rx="14.327" ry="14.327"/>
		<path style="opacity:0.2;" d="M382.089,201.858c7.531,0,13.692,5.814,14.27,13.196c0.029-0.374,0.057-0.749,0.057-1.131
			c0-7.913-6.414-14.327-14.327-14.327c-7.913,0-14.327,6.415-14.327,14.327c0,0.382,0.028,0.757,0.057,1.131
			C368.397,207.671,374.559,201.858,382.089,201.858z"/>
		<path style="opacity:0.1;" d="M391.138,213.915c-0.429,0-5.055,0-7.533,0c0-2.48,0-7.113,0-7.533c0-0.837-0.679-1.516-1.516-1.516
			c-0.837,0-1.516,0.679-1.516,1.516c0,0.567,0,8.481,0,9.049c0,0.837,0.679,1.516,1.516,1.516l0,0l0,0c0.555,0,8.494,0,9.049,0
			c0.837,0,1.516-0.679,1.516-1.516C392.654,214.594,391.975,213.915,391.138,213.915z"/>
		<path style="fill:#407BFF;" d="M391.138,215.439c0.837,0,1.516-0.679,1.516-1.516c0-0.837-0.679-1.516-1.516-1.516
			c-0.567,0-8.482,0-9.049,0c-0.837,0-1.516,0.678-1.516,1.516c0,0.837,0.679,1.516,1.516,1.516
			C382.644,215.439,390.583,215.439,391.138,215.439z"/>
		<path style="opacity:0.3;fill:#FFFFFF;" d="M391.138,215.439c0.837,0,1.516-0.679,1.516-1.516c0-0.837-0.679-1.516-1.516-1.516
			c-0.567,0-8.482,0-9.049,0c-0.837,0-1.516,0.678-1.516,1.516c0,0.837,0.679,1.516,1.516,1.516
			C382.644,215.439,390.583,215.439,391.138,215.439z"/>
		<path style="fill:#407BFF;" d="M383.605,204.874c0-0.837-0.679-1.516-1.516-1.516c-0.837,0-1.516,0.679-1.516,1.516
			c0,0.567,0,8.481,0,9.049c0,0.837,0.679,1.516,1.516,1.516c0.837,0,1.516-0.679,1.516-1.516
			C383.605,213.368,383.605,205.429,383.605,204.874z"/>
		<path style="opacity:0.6;fill:#FFFFFF;" d="M383.605,204.874c0-0.837-0.679-1.516-1.516-1.516c-0.837,0-1.516,0.679-1.516,1.516
			c0,0.567,0,8.481,0,9.049c0,0.837,0.679,1.516,1.516,1.516c0.837,0,1.516-0.679,1.516-1.516
			C383.605,213.368,383.605,205.429,383.605,204.874z"/>
	</g>
</g>
<g id="Books">
	<g>
		<g>
			<path style="fill:#263238;" d="M161.579,355.675v-22.323c2.751,0,2.755-4.275,0-4.275c-8.508,0-17.021-0.058-25.535-0.108v30.981
				c8.512,0,17.024,0,25.535,0C164.33,359.95,164.335,355.675,161.579,355.675z"/>
			<path style="opacity:0.3;fill:#FFFFFF;" d="M161.579,355.675v-22.323c2.751,0,2.755-4.275,0-4.275
				c-8.508,0-17.021-0.058-25.535-0.108v30.981c8.512,0,17.024,0,25.535,0C164.33,359.95,164.335,355.675,161.579,355.675z"/>
			<rect x="141.744" y="333.352" style="fill:#407BFF;" width="19.836" height="22.292"/>
			<rect x="141.744" y="333.352" style="opacity:0.8;fill:#FFFFFF;" width="19.836" height="22.292"/>
			<path style="fill:#407BFF;" d="M145.906,357.813H77.138c-4.727,0-8.559-5.954-8.559-13.299s3.832-13.299,8.559-13.299h68.768
				V357.813z"/>
			<path style="opacity:0.9;fill:#FFFFFF;" d="M145.906,357.813H77.138c-4.727,0-8.559-5.954-8.559-13.299
				s3.832-13.299,8.559-13.299h68.768V357.813z"/>
			<g>
				<path style="fill:#263238;" d="M145.906,329.077c-22.514,0-45.065-0.406-67.575,0c-15.42,0.278-16.249,29.835-1.124,30.873
					c10.543,0.723,21.388,0,31.951,0c12.249,0,24.499,0,36.748,0c2.751,0,2.755-4.275,0-4.275c-21.339,0-42.677,0-64.016,0
					c-4.939,0-8.471-0.055-10.38-5.881c-1.652-5.041-1.132-15.329,5.629-16.442c0.728-0.12,1.586,0,2.317,0
					c11.634,0,23.268,0,34.903,0c10.516,0,21.032,0,31.548,0C148.656,333.352,148.661,329.077,145.906,329.077L145.906,329.077z"/>
			</g>
		</g>
		<g>
			<g>
				<g>
					<path style="fill:#407BFF;" d="M157.075,325.917v-17.811c2.195,0,2.198-3.411,0-3.411c-6.788,0-13.581-0.046-20.374-0.086
						v24.719c6.791,0,13.582,0,20.374,0C159.269,329.327,159.273,325.917,157.075,325.917z"/>
					<path style="opacity:0.3;fill:#FFFFFF;" d="M157.075,325.917v-17.811c2.195,0,2.198-3.411,0-3.411
						c-6.788,0-13.581-0.046-20.374-0.086v24.719c6.791,0,13.582,0,20.374,0C159.269,329.327,159.273,325.917,157.075,325.917z"/>
				</g>
				<rect x="141.249" y="308.106" style="fill:#407BFF;" width="15.826" height="17.786"/>
				<rect x="141.249" y="308.106" style="opacity:0.8;fill:#FFFFFF;" width="15.826" height="17.786"/>
			</g>
			<path style="fill:#407BFF;" d="M144.569,327.622H89.702c-3.772,0-6.829-4.751-6.829-10.611s3.058-10.611,6.829-10.611h54.867
				V327.622z"/>
			<path style="opacity:0.9;fill:#FFFFFF;" d="M144.569,327.622H89.702c-3.772,0-6.829-4.751-6.829-10.611
				s3.058-10.611,6.829-10.611h54.867V327.622z"/>
			<g>
				<g>
					<path style="fill:#407BFF;" d="M144.569,304.695c-17.963,0-35.955-0.324-53.915,0c-12.303,0.222-12.964,23.804-0.897,24.632
						c8.412,0.577,17.064,0,25.492,0c9.773,0,19.547,0,29.32,0c2.195,0,2.198-3.411,0-3.411c-17.025,0-34.05,0-51.076,0
						c-3.941,0-6.759-0.044-8.282-4.692c-1.318-4.022-0.903-12.23,4.491-13.119c0.581-0.096,1.265,0,1.849,0
						c9.282,0,18.565,0,27.848,0c8.39,0,16.781,0,25.171,0C146.764,308.106,146.767,304.695,144.569,304.695L144.569,304.695z"/>
				</g>
			</g>
		</g>
	</g>
</g>
<g id="Mug">
	<g>
		<g>
			<path style="fill:#407BFF;" d="M149.509,276.985c-0.047-2.778-2.312-5.014-5.09-5.014h-30.364c-2.779,0-5.044,2.236-5.091,5.014
				c-0.002,0.128-0.004,0.248-0.006,0.375c-1.114-0.356-2.26-0.559-3.381-0.559c-4.98,0-8.326,3.888-8.326,9.675
				c0,5.537,5.821,9.675,11.025,9.675c0.547,0,1.065-0.066,1.57-0.157c1.224,3.759,3.462,7.058,6.409,9.561h25.963
				c4.555-3.868,7.455-9.621,7.455-16.068C149.673,287.481,149.606,282.773,149.509,276.985z M108.276,292.909
				c-3.525,0-7.783-2.87-7.783-6.433c0-1.508,0.367-6.433,5.084-6.433c1.088,0,2.245,0.275,3.326,0.757
				c-0.062,3.998-0.102,7.145-0.102,8.687c0,1.15,0.123,2.267,0.3,3.367C108.841,292.89,108.567,292.909,108.276,292.909z"/>
			<path style="opacity:0.2;" d="M149.509,276.985c-0.047-2.778-2.312-5.014-5.09-5.014h-30.364c-2.779,0-5.044,2.236-5.091,5.014
				c-0.002,0.128-0.004,0.248-0.006,0.375c-1.114-0.356-2.26-0.559-3.381-0.559c-4.98,0-8.326,3.888-8.326,9.675
				c0,5.537,5.821,9.675,11.025,9.675c0.547,0,1.065-0.066,1.57-0.157c1.224,3.759,3.462,7.058,6.409,9.561h25.963
				c4.555-3.868,7.455-9.621,7.455-16.068C149.673,287.481,149.606,282.773,149.509,276.985z M108.276,292.909
				c-3.525,0-7.783-2.87-7.783-6.433c0-1.508,0.367-6.433,5.084-6.433c1.088,0,2.245,0.275,3.326,0.757
				c-0.062,3.998-0.102,7.145-0.102,8.687c0,1.15,0.123,2.267,0.3,3.367C108.841,292.89,108.567,292.909,108.276,292.909z"/>
		</g>
		<path style="opacity:0.9;fill:#FFFFFF;" d="M137.121,285.279l-3.808-8.446l-2.409,5.342c-0.427-0.05-0.86-0.085-1.303-0.085
			c-0.443,0-0.876,0.035-1.303,0.085l-2.408-5.342l-3.808,8.446c-1.18,1.329-1.888,2.976-1.888,4.766
			c0,4.393,4.212,7.955,9.407,7.955c5.196,0,9.408-3.561,9.408-7.955C139.01,288.255,138.302,286.608,137.121,285.279z
			 M125.417,288.593c0-0.649,0.387-1.176,0.865-1.176c0.477,0,0.865,0.527,0.865,1.176c0,0.649-0.387,1.176-0.865,1.176
			C125.804,289.768,125.417,289.242,125.417,288.593z M130.928,293.169c-0.5,0-0.968-0.187-1.326-0.515
			c-0.358,0.328-0.826,0.515-1.326,0.515c-1.09,0-1.977-0.887-1.977-1.977h0.83c0,0.632,0.514,1.147,1.147,1.147
			c0.398,0,0.761-0.205,0.973-0.549l0.353-0.573l0.353,0.573c0.212,0.344,0.575,0.549,0.973,0.549c0.632,0,1.147-0.515,1.147-1.147
			h0.83C132.905,292.283,132.018,293.169,130.928,293.169z M132.922,289.768c-0.478,0-0.865-0.526-0.865-1.176
			c0-0.649,0.387-1.176,0.865-1.176c0.477,0,0.865,0.527,0.865,1.176C133.787,289.242,133.4,289.768,132.922,289.768z"/>
	</g>
</g>
<g id="Vase">
	<g>
		<path style="fill:#407BFF;" d="M342.887,190.79c3.981-12.368,11.531-30.572,23.933-41.784l-39.2-11.925
			c4.057,16.219,0.191,35.543-3.39,48.033c-8.624,2.458-16.602,10.818-20.079,22.248c-4.838,15.903,5.21,17.464,17.091,21.078
			c11.881,3.614,21.095,7.913,25.933-7.99C350.652,209.021,348.681,197.634,342.887,190.79z"/>
		<path style="opacity:0.5;fill:#FFFFFF;" d="M342.887,190.79c3.981-12.368,11.531-30.572,23.933-41.784l-39.2-11.925
			c4.057,16.219,0.191,35.543-3.39,48.033c-8.624,2.458-16.602,10.818-20.079,22.248c-4.838,15.903,5.21,17.464,17.091,21.078
			c11.881,3.614,21.095,7.913,25.933-7.99C350.652,209.021,348.681,197.634,342.887,190.79z"/>
		<path style="opacity:0.4;fill:#FFFFFF;" d="M344.306,219.577c3.055-10.041,1.599-20.58-3.708-26.848l-1.076-1.272l0.51-1.586
			c3.681-11.434,13.005-30.34,23.034-42.007l-31.689-9.64c1.832,15.276-0.951,36.172-4.262,47.718l-0.459,1.602L325.053,188
			c-7.899,2.251-14.977,10.194-18.031,20.235c-1.384,4.551-1.479,7.834-0.291,10.039c1.766,3.274,6.847,4.773,12.732,6.506
			c1.741,0.512,3.565,1.067,5.297,1.611c5.853,1.834,10.909,3.422,14.198,1.687C341.171,226.909,342.921,224.128,344.306,219.577z"
			/>
		<path style="fill:#407BFF;" d="M340.598,192.729l-1.076-1.272l0.51-1.586c1.269-3.941,3.219-8.776,5.626-13.889
			c-1.922,0.769-5.04,1.495-7.701-0.319c-3.085-2.104-6.867-0.342-8.644,0.73c-0.668,3.568-1.417,6.825-2.198,9.549l-0.459,1.602
			L325.053,188c-7.899,2.251-14.977,10.194-18.031,20.235c-1.384,4.551-1.479,7.834-0.291,10.039
			c1.766,3.274,6.847,4.773,12.732,6.506c1.741,0.512,3.565,1.067,5.297,1.611c5.853,1.834,10.909,3.422,14.198,1.687
			c2.214-1.169,3.964-3.95,5.349-8.501C347.36,209.536,345.905,198.998,340.598,192.729z"/>
		<path style="opacity:0.3;fill:#FFFFFF;" d="M340.598,192.729l-1.076-1.272l0.51-1.586c1.269-3.941,3.219-8.776,5.626-13.889
			c-1.922,0.769-5.04,1.495-7.701-0.319c-3.085-2.104-6.867-0.342-8.644,0.73c-0.668,3.568-1.417,6.825-2.198,9.549l-0.459,1.602
			L325.053,188c-7.899,2.251-14.977,10.194-18.031,20.235c-1.384,4.551-1.479,7.834-0.291,10.039
			c1.766,3.274,6.847,4.773,12.732,6.506c1.741,0.512,3.565,1.067,5.297,1.611c5.853,1.834,10.909,3.422,14.198,1.687
			c2.214-1.169,3.964-3.95,5.349-8.501C347.36,209.536,345.905,198.998,340.598,192.729z"/>
		<path style="opacity:0.5;fill:#FFFFFF;" d="M330.507,181.255c0,0,4.139-13.033,4.068-27.688
			C334.503,138.913,344.942,159,330.507,181.255z"/>
		<path style="opacity:0.5;fill:#FFFFFF;" d="M337.28,145.267c-0.077,0.907-2.269,2.621-3.094-1.922
			C333.361,138.802,337.357,144.359,337.28,145.267z"/>
		<g style="opacity:0.2;">
			<path d="M312.117,215.196c-1.535-1.201-3.572,0.817-2.359,2.342c1.363,1.714,4.056,3.579,9.193,5.142
				c13.553,4.123,19.126,6.496,22.981-2.242C345.571,212.186,330.315,229.43,312.117,215.196z"/>
			<path d="M309.59,211.644c-1.395-0.649-1.642-2.046,0.811-6.101C312.854,201.487,312.691,213.086,309.59,211.644z"/>
		</g>
		<g>
			<g>
				<g>
					<path style="fill:#407BFF;" d="M325.163,215.336c3.595-12.441,8.186-24.658,13.143-36.61
						c9.549-23.024,21.111-46.25,37.977-64.852c0.516-0.569-0.296-1.453-0.815-0.881c-16.468,18.162-27.865,40.631-37.34,63.065
						c-5.358,12.686-10.287,25.687-14.113,38.929C323.801,215.728,324.948,216.079,325.163,215.336L325.163,215.336z"/>
				</g>
				<g style="opacity:0.3;">
					<path style="fill:#FFFFFF;" d="M325.163,215.336c3.595-12.441,8.186-24.658,13.143-36.61
						c9.549-23.024,21.111-46.25,37.977-64.852c0.516-0.569-0.296-1.453-0.815-0.881c-16.468,18.162-27.865,40.631-37.34,63.065
						c-5.358,12.686-10.287,25.687-14.113,38.929C323.801,215.728,324.948,216.079,325.163,215.336L325.163,215.336z"/>
				</g>
			</g>
			<path style="fill:#407BFF;" d="M376.135,111.509c0,0-7.521-0.546-4.678,3.28c2.843,3.826,6.502-1.332,6.502-1.332
				s-1.177,7.307,3.114,8.09c4.291,0.783,0.304-8.444,0.304-8.444s5.498,6.55,7.73,3.223c2.232-3.328-7.474-6.629-7.474-6.629
				s9.539,0.985,7.14-2.009c-2.399-2.994-9.976-0.422-9.976-0.422s2.897-6.087-1.873-7.015c-4.77-0.928-1.081,6.988-1.081,6.988
				s-5.581-5.705-7.841-3.431C365.743,106.083,376.135,111.509,376.135,111.509z"/>
			<path style="fill:#407BFF;" d="M355.622,141.825c0,0,5.848-7.949,4.542-21.412C358.859,106.951,355.622,141.825,355.622,141.825z
				"/>
			<path style="fill:#407BFF;" d="M362.301,131.028c0,0,8.414-8.624,13.039-4.081C379.965,131.489,368.295,126.947,362.301,131.028z
				"/>
			<path style="opacity:0.6;fill:#FFFFFF;" d="M380.517,111.914c-0.58,0.542-1.91,0.062-2.971-1.072
				c-1.061-1.135-1.451-2.494-0.871-3.036c0.58-0.542,1.91-0.062,2.971,1.072C380.707,110.013,381.097,111.372,380.517,111.914z"/>
		</g>
		<g>
			<g>
				<path style="fill:#407BFF;" d="M328.226,207.49c3.942-12.335,6.932-25.04,9.471-37.727c4.89-24.441,8.22-50.171,4.57-75.014
					c-0.112-0.76,1.055-1.042,1.168-0.278c3.564,24.256,0.518,49.266-4.105,73.175c-2.614,13.521-5.76,27.064-9.956,40.193
					C329.139,208.574,327.99,208.227,328.226,207.49L328.226,207.49z"/>
			</g>
			<g style="opacity:0.3;">
				<path style="fill:#FFFFFF;" d="M328.226,207.49c3.942-12.335,6.932-25.04,9.471-37.727c4.89-24.441,8.22-50.171,4.57-75.014
					c-0.112-0.76,1.055-1.042,1.168-0.278c3.564,24.256,0.518,49.266-4.105,73.175c-2.614,13.521-5.76,27.064-9.956,40.193
					C329.139,208.574,327.99,208.227,328.226,207.49L328.226,207.49z"/>
			</g>
			<path style="fill:#407BFF;" d="M343.707,92.867c0,0,6.551,3.735,2.059,5.33c-4.492,1.595-4.659-4.727-4.659-4.727
				s-3.091,6.725-7.091,4.985c-4-1.74,4.45-7.183,4.45-7.183s-8.215,2.379-8.215-1.628c-0.001-4.007,9.899-1.344,9.899-1.344
				s-8.472-4.493-4.812-5.645c3.66-1.151,8.521,5.205,8.521,5.205s0.983-6.669,5.462-4.784c4.479,1.885-2.994,6.406-2.994,6.406
				s7.813-1.63,8.423,1.517C355.36,94.147,343.707,92.867,343.707,92.867z"/>
			<path style="opacity:0.5;fill:#FFFFFF;" d="M343.707,92.867c0,0,6.551,3.735,2.059,5.33c-4.492,1.595-4.659-4.727-4.659-4.727
				s-3.091,6.725-7.091,4.985c-4-1.74,4.45-7.183,4.45-7.183s-8.215,2.379-8.215-1.628c-0.001-4.007,9.899-1.344,9.899-1.344
				s-8.472-4.493-4.812-5.645c3.66-1.151,8.521,5.205,8.521,5.205s0.983-6.669,5.462-4.784c4.479,1.885-2.994,6.406-2.994,6.406
				s7.813-1.63,8.423,1.517C355.36,94.147,343.707,92.867,343.707,92.867z"/>
			<path style="fill:#407BFF;" d="M343.863,129.47c0,0-0.43-9.859,8.151-20.314C360.595,98.701,343.863,129.47,343.863,129.47z"/>
			<path style="fill:#407BFF;" d="M344.328,116.782c0,0-2.187-11.849-8.557-10.651S341.622,110.055,344.328,116.782z"/>
			<path style="fill:#407BFF;" d="M339.842,90.763c0.18,0.773,1.552,1.115,3.065,0.764c1.513-0.352,2.594-1.263,2.414-2.037
				c-0.18-0.773-1.552-1.115-3.065-0.764C340.743,89.078,339.662,89.99,339.842,90.763z"/>
		</g>
	</g>
	<path style="fill:#407BFF;" d="M374.877,145.891c-0.072-0.847,1.087-1.182,1.428-0.404c0.85,1.938,1.196,4.534-0.426,7.513
		c-1.049,1.928-2.274,3.761-3.476,5.385c-0.386,0.52-1.184,0.007-0.875-0.562C373.474,154.241,375.211,149.83,374.877,145.891z"/>
	<path style="fill:#407BFF;" d="M370.739,165.645c2.534-2.008,5.769-4.896,8.034-8.073c0.455-0.639,1.461-0.143,1.218,0.604
		c-0.882,2.716-3.067,6.347-8.453,8.763C370.719,167.305,370.035,166.203,370.739,165.645z"/>
</g>
<g id="Cat">
	<g>
		<g>
			<path style="fill:#407BFF;" d="M243.37,216.75c0,0,5.499,1.796,12.22-4.601c6.721-6.397,20.163-20.756,25.662-22.895
				c5.499-2.139,10.693-9.471,15.275-11.304c4.582-1.833,3.728,0.917,3.728,0.917s5.762-2.215,4.826,2.138
				c0,0,2.948,1.222,0.099,3.666c-2.849,2.444-12.625,10.082-15.985,10.693c0,0-12.831,16.497-19.552,24.44
				s-12.316,9.457-12.268,26.878C257.423,264.104,243.37,216.75,243.37,216.75z"/>
			<path style="opacity:0.2;" d="M248.364,216.529c-3.019,0.852-4.994,0.221-4.994,0.221s14.053,47.353,14.005,29.933
				c-0.036-13.345,3.24-17.356,7.795-22.073C257.084,230.669,250.372,220.181,248.364,216.529z"/>
			<path style="opacity:0.4;fill:#FFFFFF;" d="M305.082,181.006c0.936-4.353-4.826-2.138-4.826-2.138s0.854-2.75-3.728-0.917
				c-4.582,1.833-9.776,9.165-15.275,11.304c-1.231,0.479-2.863,1.573-4.726,3.051c0.541,3.745,2.533,8.532,9.29,7.38
				c2.037-2.596,3.379-4.321,3.379-4.321c3.36-0.611,13.137-8.249,15.985-10.693C308.03,182.228,305.082,181.006,305.082,181.006z"
				/>
			<g>
				<path style="fill:#407BFF;" d="M305.193,181.945c0,0,1.999-1.168,2.915-0.166c0,0-1.575,0.086-2.52,1.26L305.193,181.945z"/>
				<path style="fill:#407BFF;" d="M302.704,179.023c0,0,1.567-2.628,4.631-1.511c0,0-2.52,0.057-3.179,2.807L302.704,179.023z"/>
				<path style="fill:#407BFF;" d="M298.285,177.913c0,0,1.203-2.979,3.523-2.263c0,0-2.12,0.601-2.148,2.807L298.285,177.913z"/>
			</g>
			<g style="opacity:0.6;">
				<path style="fill:#FFFFFF;" d="M305.193,181.945c0,0,1.999-1.168,2.915-0.166c0,0-1.575,0.086-2.52,1.26L305.193,181.945z"/>
				<path style="fill:#FFFFFF;" d="M302.704,179.023c0,0,1.567-2.628,4.631-1.511c0,0-2.52,0.057-3.179,2.807L302.704,179.023z"/>
				<path style="fill:#FFFFFF;" d="M298.285,177.913c0,0,1.203-2.979,3.523-2.263c0,0-2.12,0.601-2.148,2.807L298.285,177.913z"/>
			</g>
			<path style="opacity:0.2;" d="M301.807,181.84c0,0-4.021,0.417-5.854,3C295.953,184.84,296.328,180.173,301.807,181.84z"/>
		</g>
		<g>
			<path style="fill:#407BFF;" d="M191.776,320.403c0,0,1.511,23.52-19.739,24.77s-37.667,7.5-40-13.75
				c-2.681-24.416-13.5-10.128-11.25,5.936c2.25,16.064,10.5,21.314,31,22.064s42.603-3.025,44.426-16.637L191.776,320.403z"/>
			<path style="opacity:0.3;fill:#FFFFFF;" d="M131.639,328.487c-2.733-17.248-10.264-9.789-11.079,2.327
				C123,329.133,126.848,327.428,131.639,328.487z"/>
			<path style="opacity:0.3;fill:#FFFFFF;" d="M132.097,331.865c-3.206,0.256-8.059,1.297-11.37,4.979
				c0.021,0.172,0.035,0.343,0.059,0.515c0.302,2.154,0.715,4.108,1.248,5.888c1.587-2.831,4.744-6.115,10.951-6.819
				C132.599,335.077,132.303,333.559,132.097,331.865z"/>
			<g style="opacity:0.3;">
				<path style="fill:#FFFFFF;" d="M140.414,345.56c-1.669-0.701-3.125-1.706-4.343-3.104c-2.83,1.932-6.725,5.717-6.455,11.79
					c1.644,1.117,3.543,2.024,5.719,2.752C135.478,354.106,136.383,349.28,140.414,345.56z"/>
				<path style="fill:#FFFFFF;" d="M155.495,359.507c-0.694-2.935-1.567-8.12-0.559-12.776c-2.216,0.176-4.312,0.28-6.273,0.252
					c-1.14,3.07-2.216,7.641-1.009,12.211c1.321,0.099,2.693,0.177,4.132,0.229C153.019,359.468,154.257,359.496,155.495,359.507z"
					/>
				<path style="fill:#FFFFFF;" d="M184.906,340.033c-1.584,1.506-3.523,2.798-5.913,3.714c1.534,3.171,4.012,6.718,7.4,6.626
					C191.214,350.241,187.002,344.941,184.906,340.033z"/>
				<path style="fill:#FFFFFF;" d="M168.643,356.516c3.16-0.099,2.129-6.536,1.668-11.228c-2.287,0.163-4.512,0.374-6.666,0.593
					C164.123,349.779,165.422,356.617,168.643,356.516z"/>
			</g>
			<path style="opacity:0.1;" d="M187.216,353.987c4.978-2.604,8.334-6.249,8.997-11.201l-4.438-22.383
				c0,0,0.431,6.781-2.456,13.254c0.086,2.92,0.467,7.113,1.732,11.546C192.183,349.169,189.883,352.059,187.216,353.987z"/>
		</g>
		<path style="fill:#407BFF;" d="M208.09,291.659c0,0,27.035-9.04,39.33,4.339c12.294,13.379-7.723,49.714,1.317,51.16
			c9.04,1.446,35.651-4.786,39.629,1c1.222,1.777,1.932,3.486,2.329,5.001c0.778,2.965-1.536,5.847-4.602,5.847h-54.138
			c0,0-3.254,0-1.085-4.339C230.871,354.667,183.501,341.198,208.09,291.659z"/>
		<path style="opacity:0.2;" d="M208.09,291.659c0,0,27.035-9.04,39.33,4.339c12.294,13.379-7.723,49.714,1.317,51.16
			c9.04,1.446,35.651-4.786,39.629,1c1.222,1.777,1.932,3.486,2.329,5.001c0.778,2.965-1.536,5.847-4.602,5.847h-54.138
			c0,0-3.254,0-1.085-4.339C230.871,354.667,183.501,341.198,208.09,291.659z"/>
		<g>
			<path style="fill:#407BFF;" d="M220.703,190.007c0,0,1.664-10.167,3.499-11.167c1.835-1,2.038,8.167,3.353,9.5L220.703,190.007z"
				/>
			<path style="opacity:0.2;" d="M220.703,190.007c0,0,1.664-10.167,3.499-11.167c1.835-1,2.038,8.167,3.353,9.5L220.703,190.007z"
				/>
		</g>
		<g>
			<g>
				<g>
					<path style="fill:#407BFF;" d="M243.641,190.789c-0.129-0.274-0.217-0.786-0.173-1.159c0.138-1.16,1.271-1.664,2.279-1.918
						c0.374-0.094,0.216-0.673-0.16-0.579c-1.186,0.298-2.425,0.925-2.684,2.233c-0.112,0.569-0.029,1.2,0.218,1.725
						C243.287,191.441,243.804,191.137,243.641,190.789L243.641,190.789z"/>
				</g>
				<g>
					<path style="fill:#407BFF;" d="M245.183,192.519c0.43-1.905,2.704-2.404,4.354-2.328c0.386,0.018,0.385-0.582,0-0.6
						c-1.921-0.089-4.442,0.595-4.932,2.769C244.519,192.736,245.098,192.896,245.183,192.519L245.183,192.519z"/>
				</g>
				<g>
					<path style="fill:#407BFF;" d="M246.216,193.906c0.656-1.082,2.328-0.672,3.241-0.31c0.359,0.142,0.515-0.438,0.16-0.578
						c-1.206-0.478-3.109-0.751-3.919,0.585C245.497,193.934,246.016,194.236,246.216,193.906L246.216,193.906z"/>
				</g>
			</g>
			<g style="opacity:0.5;">
				<g>
					<path style="fill:#FFFFFF;" d="M243.641,190.789c-0.129-0.274-0.217-0.786-0.173-1.159c0.138-1.16,1.271-1.664,2.279-1.918
						c0.374-0.094,0.216-0.673-0.16-0.579c-1.186,0.298-2.425,0.925-2.684,2.233c-0.112,0.569-0.029,1.2,0.218,1.725
						C243.287,191.441,243.804,191.137,243.641,190.789L243.641,190.789z"/>
				</g>
				<g>
					<path style="fill:#FFFFFF;" d="M245.183,192.519c0.43-1.905,2.704-2.404,4.354-2.328c0.386,0.018,0.385-0.582,0-0.6
						c-1.921-0.089-4.442,0.595-4.932,2.769C244.519,192.736,245.098,192.896,245.183,192.519L245.183,192.519z"/>
				</g>
				<g>
					<path style="fill:#FFFFFF;" d="M246.216,193.906c0.656-1.082,2.328-0.672,3.241-0.31c0.359,0.142,0.515-0.438,0.16-0.578
						c-1.206-0.478-3.109-0.751-3.919,0.585C245.497,193.934,246.016,194.236,246.216,193.906L246.216,193.906z"/>
				</g>
			</g>
		</g>
		<path style="fill:#407BFF;" d="M244.355,208.653c-3.372,5.008,3.954,9.02,10.871,25.389c6.917,16.369-2.868,39.653-3.677,67.649
			c-0.809,27.996-13.164,32.224-13.164,32.224l-12.682,22.425c0,0-31.333,3.333-34.333-19c-3-22.333,5-44,11-60.333
			c6-16.333,17.667-29.333,14-39c-3.667-9.667-4.667-21-4.667-21s-7-5.333-8.333-16.333c0,0-5.667-14-3-17c2.667-3,14,9,14,9
			s9.703-6.333,13.185-6c3.482,0.333,7.815,6.333,14.815,3.333C242.37,190.007,252.673,196.3,244.355,208.653z"/>
		<path style="opacity:0.2;fill:#FFFFFF;" d="M251.549,301.691c0.809-27.996,10.594-51.28,3.677-67.649
			c-6.917-16.369-14.243-20.381-10.871-25.389c8.318-12.353-1.985-18.647-1.985-18.647c-0.409,0.175-0.807,0.314-1.199,0.431
			c-1.251,0.85-2.348,1.891-2.266,2.899c0.186,2.288,1.453,4.227-2.689,9.715c-5.621,7.448,2.372,19.216,8.436,27.082
			c6.064,7.866,8.426,6.244,9.025,19.733c0.697,15.671-10.422,34.828-13.961,47.258c-2.985,10.485-7.412,30.933-5.312,43.83
			l3.981-7.04C238.386,333.915,250.74,329.687,251.549,301.691z"/>
		<path style="opacity:0.6;fill:#263238;" d="M242.37,191.048c0,0-2.271,0.563-1.708,1.375S246.016,194.423,242.37,191.048z"/>
		<path style="opacity:0.2;" d="M208.537,198.673l4.25-4c0,0-8.625-11-11.25-9.5S207.162,188.298,208.537,198.673z"/>
		<path style="opacity:0.2;fill:#FFFFFF;" d="M226.782,191.09c0.29-1.01-2.268-2.625-4.185-0.375S226.492,192.1,226.782,191.09z"/>
		<path style="opacity:0.2;fill:#FFFFFF;" d="M229.514,189.465c-0.542,0.306-1.965-1.335-1.066-2.251
			C229.347,186.299,230.056,189.16,229.514,189.465z"/>
		<g style="opacity:0.6;">
			<g>
				<path style="fill:#FFFFFF;" d="M237.578,196.967c-2.777-0.329-5.365,1.544-6.926,3.648c-0.23,0.31,0.29,0.61,0.518,0.303
					c1.444-1.947,3.847-3.655,6.408-3.351C237.961,197.612,237.958,197.011,237.578,196.967L237.578,196.967z"/>
			</g>
			<g>
				<path style="fill:#FFFFFF;" d="M237.915,198.717c-3.12,0.899-4.859,4.268-5.376,7.22c-0.066,0.378,0.512,0.54,0.579,0.16
					c0.479-2.737,2.039-5.959,4.957-6.801C238.445,199.189,238.288,198.61,237.915,198.717L237.915,198.717z"/>
			</g>
			<g>
				<path style="fill:#FFFFFF;" d="M239.616,199.888c-1.534,1.571-2.015,4.024-1.921,6.129c0.017,0.385,0.617,0.387,0.6,0
					c-0.087-1.947,0.321-4.246,1.745-5.705C240.311,200.036,239.887,199.611,239.616,199.888L239.616,199.888z"/>
			</g>
		</g>
		<path style="opacity:0.2;" d="M210.54,305.193l-2.503,4.813l3.833,5.167l11.5,8.667c0,0,6.949,8.064,13.651,12.488l1.365-2.413
			c0,0,5.98-2.058,9.892-12.737C242.238,298.03,210.54,305.193,210.54,305.193z"/>
		<path style="opacity:0.1;" d="M255.465,268.768l-17.928-8.762l-6.667-7.333l-1.03,4.957c0,0-0.137,23.641,15.03,26.043
			c3.498,0.554,6.129-0.252,8.363-0.601C253.926,278.104,254.73,273.331,255.465,268.768z"/>
		<g style="opacity:0.3;">
			<path style="fill:#FFFFFF;" d="M212.847,224.903c7.926-0.224,20.113-9.451,11.355-7.897c-5.356,0.951-9.716,0.875-12.434,0.647
				C211.895,218.829,212.219,221.52,212.847,224.903z"/>
			<path style="fill:#FFFFFF;" d="M227.238,235.625c-4.918,1.25-8.937,1.067-11.479,0.683c0.195,0.57,0.398,1.137,0.611,1.698
				c0.873,2.302,0.87,4.795,0.287,7.475C226.594,244.088,235.1,233.627,227.238,235.625z"/>
			<path style="fill:#FFFFFF;" d="M216.643,290.673c-9.06,0.703-14.615-2.873-17.299-5.304c-1.066,3.034-2.128,6.2-3.125,9.473
				C214.808,299.975,229.311,289.69,216.643,290.673z"/>
			<path style="fill:#FFFFFF;" d="M224.202,264.625c-6.906-0.154-11.438-2.568-13.901-4.395c-1.51,2.861-3.108,5.866-4.614,9.011
				C219.408,274.909,234.236,264.849,224.202,264.625z"/>
		</g>
		<g>
			<path style="fill:#263238;" d="M231.264,193.406c0.463,0.906,0.354,1.894-0.271,2.173c-0.626,0.279-1.424-0.165-1.897-1.084
				c-0.473-0.919-0.342-1.904,0.284-2.182C230.005,192.033,230.804,192.478,231.264,193.406z"/>
			<path style="fill:#263238;" d="M226.046,195.578c0.191-0.052,0.342-0.199,0.399-0.389c0.442-1.494,1.555-2.697,3.01-3.255
				c0.3-0.148,0.423-0.512,0.275-0.812c-0.115-0.233-0.367-0.367-0.625-0.332l0,0c-1.822,0.67-3.222,2.161-3.776,4.022
				c-0.104,0.309,0.061,0.644,0.37,0.749c0,0,0.006,0.002,0.01,0.003C225.817,195.606,225.935,195.611,226.046,195.578z"/>
		</g>
		<path style="opacity:0.2;" d="M257.108,257.268c-2.61-3.519-5.281-17.98-5.281-17.98l-1.193-2.657l-2.75,5.75l2.25,14.625
			l6.208,6.097C256.634,261.113,256.896,259.166,257.108,257.268z"/>
		<g>
			<path style="fill:#407BFF;" d="M237.29,235.681c0,0,9.962-7.979,13.674-0.001c3.712,7.978,0.891,28.07,11.611,29.066
				c10.72,0.996,25.276,5.211,25.276,5.211s14.042,2.895,10.765,7.361c0,0,4.439,4.865-0.24,6.656c0,0-1.13,4.665-7.114,0.611
				c0,0-1.012,4.04-9.569-3.115c0,0-12.774-6.276-31.993-1.383S222.934,246.432,237.29,235.681z"/>
			<path style="opacity:0.4;fill:#FFFFFF;" d="M298.617,277.317c3.277-4.466-10.765-7.361-10.765-7.361s-9.856-2.853-19.321-4.419
				c-2.088,0.492-4.435,1.497-5.287,3.566c-1.424,3.46,3.763,6.723,4.534,9.239c8.728,0.585,13.915,3.127,13.915,3.127
				c8.558,7.156,9.569,3.115,9.569,3.115c5.984,4.055,7.114-0.611,7.114-0.611C303.056,282.182,298.617,277.317,298.617,277.317z"/>
			<g style="opacity:0.2;">
				<path d="M291.96,279.678c0,0,4.117,1.029,5.383,3.325C297.344,283.003,297.106,278.728,291.96,279.678z"/>
				<path d="M290.852,275.72c0,0,4.268-0.665,6.492,1.108C297.344,276.828,294.652,272.87,290.852,275.72z"/>
			</g>
		</g>
		<path style="fill:#407BFF;" d="M199.59,307.659c0,0,26.035-9.04,38.33,4.339c12.294,13.379-0.723,34.714,8.317,36.16
			c9.04,1.446,29.651-5.786,33.629,0c1.222,1.777,1.932,3.486,2.329,5.001c0.778,2.965-1.536,5.847-4.602,5.847h-54.138
			c0,0-3.254,0-1.085-4.339C222.371,354.667,175.001,357.198,199.59,307.659z"/>
		<path style="opacity:0.3;fill:#FFFFFF;" d="M219.503,314.875c-12.889,0-18.113-2.64-21.75-3.312
			c-1.965-0.363-3.854-1.409-5.182-2.295c-0.68,3.503-1.206,7.081-1.52,10.712c3.677,1.404,3.431,0.257,3.431,0.257
			C204.321,324.349,232.393,314.875,219.503,314.875z"/>
		<g style="opacity:0.1;">
			<path d="M220.426,350.374c-5.499-0.286-19.411,0.528-26.162-9.188c6.388,14.637,28.107,13.481,28.107,13.481
				S225.926,350.66,220.426,350.374z"/>
		</g>
	</g>
</g>
</svg>
